# xmcd
#
# Track frame offsets: 
#        182
#        28910
#        53072
#        85327
#        115655
#        154980
#        188657
#        222075
#        241637
#        261540
#        281132
#        302865
#        326192
#
# Disc length: 4685 seconds
#
# Revision: 4
# Processed by: cddbd v1.5.2PL0 Copyright (c) Steve Scherf et al.
# Submitted via: ExactAudioCopy v1.0b3
#
DISCID=bc124b0d
DTITLE=Kleeer - The Very Best Of
DYEAR=1998
DGENRE=Soul
TTITLE0=Tonight's The Night (Good Time)
TTITLE1=Keeep Your Body Workin'
TTITLE2=Winners
TTITLE3=Open Your Mind
TTITLE4=Get Tough
TTITLE5=Running Back To You
TTITLE6=Taste The Music
TTITLE7=De Ting Continues
TTITLE8=She Said She Loves Me (Single Version)
TTITLE9=Next Time It's For Real (Single Version)
TTITLE10=Intimate Connection
TTITLE11=Tonight
TTITLE12=Take Your Heart Away (New Edit)
EXTD=1. 'Kleeer/Tonight's The Night (Good Time)'fm\n2 .'Kleeer/ Keeep 
EXTD=Your Body Workin'fm\n3. 'Kleeer/Winners'\n4.' Kleeer/Open Your Mi
EXTD=nd'fm\n5. 'Kleeer/Get Tough'fm\n6. 'Kleeer/Running Back To You'fm
EXTD=\n7.' Kleeer/Taste The Music'fm\n8. 'Kleeer/De Ting Continues'fm\n
EXTD=9. 'Kleeer/She Said She Loves Me(single version)'fm\n10. 'Kleeer/
EXTD=Next Time It's For Real(single version)'fm\n11. 'Kleeer/Intimate 
EXTD=Connection'fm\n12. 'Kleeer/Tonight'fm\n13. 'Kleeer/Take Your Hear
EXTD=t Away(New Edit)'fm
EXTT0=
EXTT1=
EXTT2=
EXTT3=
EXTT4=
EXTT5=
EXTT6=
EXTT7=
EXTT8=
EXTT9=
EXTT10=
EXTT11=
EXTT12=
PLAYORDER=
